<?xml version="1.0" encoding="iso-8859-1"?>
<!-- Generator: Adobe Illustrator 19.0.0, SVG Export Plug-In . SVG Version: 6.00 Build 0)  -->
<svg version="1.1" id="Capa_1" xmlns="http://www.w3.org/2000/svg" xmlns:xlink="http://www.w3.org/1999/xlink" x="0px" y="0px"
	 viewBox="0 0 490.534 490.534" style="enable-background:new 0 0 490.534 490.534;" xml:space="preserve" fill="#fff">
<g>
	<path d="M489.867,20.689c0-6.2-4.2-12.5-9.4-16.7c-5.2-4.2-12.5-5.2-18.7-2.1c-112.4,48.9-199.9,3.1-204,1
		c-5.7-2.9-13.9-4.7-23.9,0c-4.2,2-92.6,47.9-205.1-1c-6.2-2.1-12.5-1-18.7,2.1s-9.4,9.4-9.4,16.7c0,13.5-2.1,325.8,232.1,466.3
		c11.5,6.8,21.9,2.1,25,0C491.967,346.489,489.867,34.189,489.867,20.689z M246.567,446.589c-166.8-105.9-198.1-317.9-203.2-395.8
		c97.2,31.2,175.5,3.2,201.3-8.2c23.1,10.5,102.6,40.6,203.6,9.3C442.067,129.489,411.967,340.389,246.567,446.589z"/>
</g>
<g>
</g>
<g>
</g>
<g>
</g>
<g>
</g>
<g>
</g>
<g>
</g>
<g>
</g>
<g>
</g>
<g>
</g>
<g>
</g>
<g>
</g>
<g>
</g>
<g>
</g>
<g>
</g>
<g>
</g>
</svg>
